<svg width="434" height="430" viewBox="0 0 434 430" fill="none" xmlns="http://www.w3.org/2000/svg">
<ellipse cx="215.148" cy="208.794" rx="215.148" ry="208.794" fill="url(#paint0_radial)" fill-opacity="0.7"/>
<g clip-path="url(#clip0)">
<path d="M55.5433 348.098C17.49 400.13 14.4108 418.483 20.0794 424.939C40.6194 448.401 209.803 353.696 331.399 212.138C383.082 151.97 446.539 59.6275 429.918 42.6741C421.222 33.8038 392.459 47.503 366.863 62.3744" stroke="#EB5D3E" stroke-width="2" stroke-miterlimit="10"/>
<path d="M346.341 234.2L336.665 208.237C336.246 207.099 335.248 206.295 334.059 206.102L306.87 201.798L371.552 163.43L346.341 234.2Z" fill="#FDC832"/>
<line x1="310.835" y1="221.294" x2="321.765" y2="208.803" stroke="#EB5D3E" stroke-width="2" stroke-linecap="round"/>
<line x1="1" y1="-1" x2="17.5982" y2="-1" transform="matrix(0.658505 -0.752576 0.752577 0.658504 324.925 234.953)" stroke="#EB5D3E" stroke-width="2" stroke-linecap="round"/>
<ellipse cx="373.105" cy="333.804" rx="49.929" ry="48.1134" fill="url(#paint1_radial)" fill-opacity="0.6"/>
</g>
<defs>
<radialGradient id="paint0_radial" cx="0" cy="0" r="1" gradientUnits="userSpaceOnUse" gradientTransform="translate(122.553 65.3616) rotate(50.1944) scale(411.228 423.744)">
<stop stop-color="#FEC82F"/>
<stop offset="0.811286" stop-color="#EB5D3E"/>
<stop offset="1" stop-color="#FEC82F"/>
</radialGradient>
<radialGradient id="paint1_radial" cx="0" cy="0" r="1" gradientUnits="userSpaceOnUse" gradientTransform="translate(351.616 300.752) rotate(49.9954) scale(95.037 98.0518)">
<stop stop-color="#FEC82F"/>
<stop offset="0.811286" stop-color="#EB5D3E"/>
<stop offset="1" stop-color="#FEC82F"/>
</radialGradient>
<clipPath id="clip0">
<rect width="416.504" height="390.383" fill="white" transform="translate(17 39)"/>
</clipPath>
</defs>
</svg>
