<?xml version="1.0" encoding="UTF-8" standalone="no"?>
<svg
   xmlns:dc="http://purl.org/dc/elements/1.1/"
   xmlns:cc="http://creativecommons.org/ns#"
   xmlns:rdf="http://www.w3.org/1999/02/22-rdf-syntax-ns#"
   xmlns:svg="http://www.w3.org/2000/svg"
   xmlns="http://www.w3.org/2000/svg"
   xmlns:sodipodi="http://sodipodi.sourceforge.net/DTD/sodipodi-0.dtd"
   xmlns:inkscape="http://www.inkscape.org/namespaces/inkscape"
   id="Vrstva_1"
   data-name="Vrstva 1"
   viewBox="0 0 33.999999 33.999999"
   version="1.1"
   sodipodi:docname="logo_horizontalni_zlutooranzove_orezane.svg"
   width="34"
   height="34"
   inkscape:version="0.92.3 (d244b95, 2018-08-02)">
  <metadata
     id="metadata3925">
    <rdf:RDF>
      <cc:Work
         rdf:about="">
        <dc:format>image/svg+xml</dc:format>
        <dc:type
           rdf:resource="http://purl.org/dc/dcmitype/StillImage" />
        <dc:title>logo_horizontalni</dc:title>
      </cc:Work>
    </rdf:RDF>
  </metadata>
  <sodipodi:namedview
     pagecolor="#ffffff"
     bordercolor="#666666"
     borderopacity="1"
     objecttolerance="10"
     gridtolerance="10"
     guidetolerance="10"
     inkscape:pageopacity="0"
     inkscape:pageshadow="2"
     inkscape:window-width="1877"
     inkscape:window-height="1053"
     id="namedview3923"
     showgrid="false"
     inkscape:zoom="5.3551704"
     inkscape:cx="90.324466"
     inkscape:cy="21.206648"
     inkscape:window-x="0"
     inkscape:window-y="27"
     inkscape:window-maximized="1"
     inkscape:current-layer="Vrstva_1" />
  <defs
     id="defs3882">
    <style
       id="style3880">.cls-1{fill:none;}.cls-2{fill:#fec82f;}.cls-3{fill:#eb5d3e;}</style>
  </defs>
  <title
     id="title3884">logo_horizontalni</title>
  <path
     class="cls-2"
     d="m 28.047539,7.1540814 2,-5.69 a 0.91,0.91 0 0 0 -0.27,-0.99999999 0.92,0.92 0 0 0 -1,-0.09 l -5.21,2.99999999 a 14.82,14.82 0 1 0 -7.14,27.7799996 q 0.66,0 1.32,-0.06 a 14.67,14.67 0 0 0 10.06,-5.24 14.9,14.9 0 0 0 0.24,-18.6999996 z m -7.72,16.3899996 -3,-7.53 a 0.89,0.89 0 0 0 -0.66,-0.54 l -7.8799992,-1.56 L 27.547539,3.1540814 Z m 6.46,1.51 a 13.52,13.52 0 1 1 -4.57,-20.8999996 L 5.7575398,13.544081 a 0.9,0.9 0 0 0 0.28,1.66 l 9.7599992,1.95 3.78,9.27 a 0.9,0.9 0 0 0 0.83,0.56 v 0 a 0.88,0.88 0 0 0 0.83,-0.6 l 6.29,-17.7699996 a 13.61,13.61 0 0 1 -0.72,16.4399996 z"
     id="path3888"
     inkscape:connector-curvature="0"
     style="fill:#fec82f" />
  <path
     class="cls-3"
     d="m 3.6975398,32.454081 a 0.92,0.92 0 0 1 -0.58,-0.21 0.89,0.89 0 0 1 -0.11,-1.26 l 9.1099992,-10.83 a 0.90138782,0.90138782 0 1 1 1.38,1.16 l -9.1099992,10.84 a 0.9,0.9 0 0 1 -0.69,0.3 z"
     id="path3890"
     inkscape:connector-curvature="0"
     style="fill:#eb5d3e" />
  <path
     class="cls-3"
     d="m 1.1775398,26.644081 a 0.92,0.92 0 0 1 -0.58000003,-0.21 0.9,0.9 0 0 1 -0.11,-1.28 l 6.38000003,-7.6 a 0.90138782,0.90138782 0 1 1 1.38,1.16 l -6.38,7.6 a 0.9,0.9 0 0 1 -0.69,0.33 z"
     id="path3892"
     inkscape:connector-curvature="0"
     style="fill:#eb5d3e" />
  <path
     class="cls-3"
     d="m 9.8675395,33.934081 a 0.9,0.9 0 0 1 -0.6899997,-1.48 l 6.3699992,-7.6 a 0.90138782,0.90138782 0 1 1 1.38,1.16 l -6.37,7.6 a 0.92,0.92 0 0 1 -0.6899995,0.32 z"
     id="path3894"
     inkscape:connector-curvature="0"
     style="fill:#eb5d3e" />
</svg>
