<svg xmlns="http://www.w3.org/2000/svg" width="31.598" height="35.667" viewBox="0 0 31.598 35.667">
  <g id="Group_206" data-name="Group 206" transform="translate(236.512 -72.606)">
    <path id="Path_182" data-name="Path 182" d="M30.422,60.024a.973.973,0,0,1-.613-.222.941.941,0,0,1-.116-1.332l9.633-11.451a.953.953,0,0,1,1.459,1.227L31.151,59.707a.952.952,0,0,1-.73.317Z" transform="translate(-263.31 46.685)" fill="#1A1449"/>
    <path id="Path_183" data-name="Path 183" d="M27.9,54.03a.973.973,0,0,1-.613-.222.952.952,0,0,1-.116-1.353l6.746-8.036a.953.953,0,1,1,1.459,1.227l-6.746,8.036A.952.952,0,0,1,27.9,54.03Z" transform="translate(-263.455 46.535)" fill="#1A1449"/>
    <path id="Path_184" data-name="Path 184" d="M36.592,61.319a.952.952,0,0,1-.73-1.565L42.6,51.718a.953.953,0,1,1,1.459,1.227l-6.735,8.036A.973.973,0,0,1,36.592,61.319Z" transform="translate(-262.956 46.954)" fill="#1A1449"/>
    <path id="Path_185" data-name="Path 185" d="M-160.914,83.606l-11.293,6.475-13.014,7.461,10.807,2.125,4.179,10.3Z" transform="translate(-45 -10)" fill="#fbc831" stroke="#fbc831" stroke-linejoin="round" stroke-width="2"/>
  </g>
</svg>